D:\school\WTK\thesis\model\3dpredictsim\Results\debug\Pog_s1_tmt_bCst_d05_k1000_WL30_ig24_act_TTC_IATx30Tn0P50_GRF.mot
nRows=12
nColumns=19

name D:\school\WTK\thesis\model\3dpredictsim\Results\debug\Pog_s1_tmt_bCst_d05_k1000_WL30_ig24_act_TTC_IATx30Tn0P50_GRF.mot
datacolumns 19
datarows 12
range 0.5428171623 0.6622369381
endheader
time 	ground_force_vx	ground_force_vy	ground_force_vz	ground_force_px	ground_force_py	ground_force_pz	1_ground_force_vx	1_ground_force_vy	1_ground_force_vz	1_ground_force_px	1_ground_force_py	1_ground_force_pz	ground_torque_x	ground_torque_y	ground_torque_z	1_ground_torque_x	1_ground_torque_y	1_ground_torque_z
        0.5428171623	       63.6162782385	      348.3956300986	        6.6447596567	        0.3377464062	        0.0000000000	        0.0293098862	     -137.0212464177	      117.8176454922	      -39.4285120378	        0.8060810521	        0.0000000000	       -0.0405807389	        0.0000000000	        0.0000000000	        0.0000000000	        0.0000000000	        0.0000000000	        0.0000000000	
        0.5536735056	       37.1908448653	      263.5017760168	       13.2835725669	        0.3455206215	        0.0000000000	        0.0255733053	     -132.6175800996	      248.5402051555	      -61.9007420498	        0.8161007930	        0.0000000000	       -0.0399906342	        0.0000000000	        0.0000000000	        0.0000000000	        0.0000000000	        0.0000000000	        0.0000000000	
        0.5645298488	       16.5660950095	      188.2618778397	       13.6537351849	        0.3562200548	        0.0000000000	        0.0195445066	      -64.7760662674	      503.1926613992	       -6.8960562215	        0.8282526257	        0.0000000000	       -0.0414502547	        0.0000000000	        0.0000000000	        0.0000000000	        0.0000000000	        0.0000000000	        0.0000000000	
        0.5753861921	        4.5450449805	      152.9638230753	       12.5517251003	        0.3598040641	        0.0000000000	        0.0171224259	      -78.5211197593	      732.0473325585	       10.8554610435	        0.8348130819	        0.0000000000	       -0.0429210366	        0.0000000000	        0.0000000000	        0.0000000000	        0.0000000000	        0.0000000000	        0.0000000000	
        0.5862425353	       -1.7151989282	      118.6873199654	       11.6710333668	        0.3598972270	        0.0000000000	        0.0171116997	      -95.7906526008	      850.6656263759	       16.6132675755	        0.8399644158	        0.0000000000	       -0.0437357641	        0.0000000000	        0.0000000000	        0.0000000000	        0.0000000000	        0.0000000000	        0.0000000000	
        0.5970988786	       -9.6539460710	       76.9734024694	        9.8544915997	        0.3597735846	        0.0000000000	        0.0171003721	     -107.5915332562	      890.5776430802	       16.2048357193	        0.8450504693	        0.0000000000	       -0.0439948655	        0.0000000000	        0.0000000000	        0.0000000000	        0.0000000000	        0.0000000000	        0.0000000000	
        0.6079552218	      -10.8340718357	       27.2532676136	        4.1463732411	        0.3592703433	        0.0000000000	        0.0168821647	     -110.8573437187	      898.6794987553	       13.2564285481	        0.8499628007	        0.0000000000	       -0.0437883364	        0.0000000000	        0.0000000000	        0.0000000000	        0.0000000000	        0.0000000000	        0.0000000000	
        0.6188115651	        0.4713487047	       -0.4702158306	       -0.0123067595	        0.0000000000	        0.0000000000	        0.0000000000	     -100.6623097318	      872.5132566852	       12.5967925825	        0.8550080869	        0.0000000000	       -0.0433993523	        0.0000000000	        0.0000000000	        0.0000000000	        0.0000000000	        0.0000000000	        0.0000000000	
        0.6296679083	        0.0126312114	       -0.0103957510	        0.0005391495	        0.0000000000	        0.0000000000	        0.0000000000	      -85.1047438278	      823.2803930367	       12.7621909450	        0.8586500313	        0.0000000000	       -0.0430748796	        0.0000000000	        0.0000000000	        0.0000000000	        0.0000000000	        0.0000000000	        0.0000000000	
        0.6405242516	        0.0147407280	       -0.0105567092	        0.0008922649	        0.0000000000	        0.0000000000	        0.0000000000	      -70.7378995988	      770.2555084533	       12.7773541328	        0.8617052271	        0.0000000000	       -0.0428903673	        0.0000000000	        0.0000000000	        0.0000000000	        0.0000000000	        0.0000000000	        0.0000000000	
        0.6513805948	        0.0574922184	       -0.0368855419	        0.0040514817	        0.0000000000	        0.0000000000	        0.0000000000	      -57.9688678981	      723.8772148320	       13.2466044107	        0.8650017931	        0.0000000000	       -0.0428099213	        0.0000000000	        0.0000000000	        0.0000000000	        0.0000000000	        0.0000000000	        0.0000000000	
        0.6622369381	       -0.3149933901	        0.1851220236	       -0.0245462539	        0.0000000000	        0.0000000000	        0.0000000000	      -47.2248291670	      686.2132412773	       14.7186425695	        0.8692003073	        0.0000000000	       -0.0427734944	        0.0000000000	        0.0000000000	        0.0000000000	        0.0000000000	        0.0000000000	        0.0000000000	
